<?xml version="1.0" encoding="UTF-8"?>
<svg version="1.1" xmlns="http://www.w3.org/2000/svg" width="200" height="200">
<path d="M0 0 C66 0 132 0 200 0 C200 66 200 132 200 200 C134 200 68 200 0 200 C0 134 0 68 0 0 Z " fill="#FDFDFD" transform="translate(0,0)"/>
<path d="M0 0 C7.38445367 3.99779043 13.036683 9.64555289 15.7265625 17.65234375 C16.60895842 21.86610398 16.59327634 25.94889225 16.265625 30.2265625 C16.94367188 30.16855469 17.62171875 30.11054687 18.3203125 30.05078125 C27.61316052 29.60029693 34.21906878 32.19938862 41.140625 38.4140625 C47.36062177 45.2516476 48.69709024 52.74521119 48.89453125 61.7578125 C46.87998432 72.86910239 39.38095653 79.72797216 31.59465408 87.24279213 C29.58249559 89.18584418 27.58739866 91.14507468 25.59579468 93.10917664 C20.6550521 97.97551925 15.68888478 102.81560442 10.71923828 107.65240479 C6.50166687 111.75829411 2.29611169 115.87573628 -1.89302444 120.0106411 C-3.85979169 121.94223464 -5.84338475 123.85537658 -7.82797241 125.76863098 C-9.02603463 126.94810337 -10.22323661 128.12845042 -11.41943359 129.30981445 C-11.97621796 129.83717194 -12.53300232 130.36452942 -13.10665894 130.90786743 C-14.81144669 132.54734524 -14.81144669 132.54734524 -16.734375 135.2265625 C-16.71811941 139.10606162 -15.91859172 140.02912586 -13.23046875 142.91015625 C-11.7066809 144.31044757 -10.15802372 145.6760944 -8.59570312 147.03320312 C-5.92133183 149.50428014 -4.79070039 150.78346942 -4.32421875 154.453125 C-4.734375 157.2265625 -4.734375 157.2265625 -5.859375 159.1640625 C-7.734375 160.2265625 -7.734375 160.2265625 -10.43359375 160.1796875 C-14.95824617 158.87316065 -17.23082469 156.39280831 -20.421875 153.0390625 C-21.27362305 152.19118164 -21.27362305 152.19118164 -22.14257812 151.32617188 C-26.17996452 147.19412226 -29.13800028 143.20843612 -30.296875 137.4140625 C-28.45451884 126.97404428 -17.75431149 118.89608351 -10.53125 111.80078125 C-9.24343765 110.52366351 -7.95644346 109.24572028 -6.67022705 107.96699524 C-3.30389677 104.62331225 0.07050666 101.28791541 3.44763184 97.95513916 C8.86758892 92.60572694 14.2797385 87.24851051 19.68294525 81.88218117 C21.56754426 80.01425514 23.45845372 78.15288982 25.34991455 76.29191589 C26.50339471 75.14889468 27.65662685 74.00562311 28.80957031 72.86206055 C29.59815933 72.09132706 29.59815933 72.09132706 30.40267944 71.30502319 C34.52523716 67.19602907 36.54854446 64.26117675 36.640625 58.4140625 C36.50989497 53.48263518 35.69995784 49.87372724 32.265625 46.2265625 C27.92022265 42.92091782 23.12712201 41.36659763 17.66366577 41.75572205 C9.14823209 43.42767471 2.53520021 51.63760969 -3.17619705 57.59571648 C-4.68179557 59.16364531 -6.19936115 60.7190615 -7.72079468 62.2716217 C-12.03880649 66.68052211 -16.34162378 71.10375165 -20.62011719 75.55102539 C-23.25230342 78.28530552 -25.90365347 80.99970662 -28.56812668 83.70251656 C-29.57476442 84.73142437 -30.57390487 85.76772451 -31.56514359 86.81147575 C-32.94740953 88.26594515 -34.35722409 89.69408252 -35.76806641 91.12084961 C-36.56032623 91.93992294 -37.35258606 92.75899628 -38.16885376 93.60289001 C-40.734375 95.2265625 -40.734375 95.2265625 -44.54476929 94.98316956 C-45.59733917 94.73348923 -46.64990906 94.4838089 -47.734375 94.2265625 C-48.50444031 91.05041504 -48.50444031 91.05041504 -48.734375 87.2265625 C-47.02131653 84.57165527 -47.02131653 84.57165527 -44.41333008 82.04492188 C-43.94197632 81.57721878 -43.47062256 81.10951569 -42.98498535 80.62763977 C-41.42569213 79.08917568 -39.84037632 77.58069206 -38.25390625 76.0703125 C-37.16151572 75.00048368 -36.07110352 73.9286314 -34.98258972 72.8548584 C-32.11234686 70.03213208 -29.22027922 67.23293269 -26.32165527 64.43939209 C-21.69515052 59.97438064 -17.10002872 55.4772409 -12.50974083 50.97505188 C-10.90891561 49.41211166 -9.2974055 47.86088798 -7.68403625 46.31091309 C0.52647507 38.65503541 0.52647507 38.65503541 4.76171875 28.53125 C4.64186976 23.56151189 4.35032595 20.3394971 1.265625 16.2265625 C1.265625 15.5665625 1.265625 14.9065625 1.265625 14.2265625 C-4.26953519 11.24609163 -9.39887813 9.46193357 -15.734375 10.2265625 C-21.50835209 13.03540746 -26.00224508 17.09670373 -30.40649414 21.68505859 C-31.02064682 22.31162354 -31.6347995 22.93818848 -32.26756287 23.58374023 C-33.5879238 24.93205908 -34.90491445 26.28368522 -36.21879768 27.63831711 C-38.30003437 29.7814097 -40.39291812 31.91246611 -42.48960876 34.04043579 C-48.44501237 40.0871358 -54.3858638 46.14777616 -60.30200195 52.23291016 C-63.93160585 55.96450394 -67.58037701 59.67640919 -71.24209404 63.37648392 C-72.63105728 64.78776353 -74.01252897 66.20645707 -75.38624763 67.6325798 C-77.30342028 69.62182436 -79.24395686 71.5851294 -81.19165039 73.54443359 C-81.75236237 74.13862091 -82.31307434 74.73280823 -82.89077759 75.34500122 C-85.91801802 78.33465648 -87.25042029 79.22906215 -91.58079529 79.20669556 C-92.62147659 78.88325165 -93.6621579 78.55980774 -94.734375 78.2265625 C-96.20776848 75.27977555 -96.1625282 73.50836012 -95.734375 70.2265625 C-94.0976551 67.69663068 -92.01215331 65.68441109 -89.86621094 63.58203125 C-89.24175079 62.94705719 -88.61729065 62.31208313 -87.97390747 61.65786743 C-85.90370399 59.56124593 -83.81229989 57.48735345 -81.71875 55.4140625 C-80.26688259 53.95815106 -78.81590666 52.50135013 -77.36578369 51.04370117 C-74.3186284 47.98769427 -71.2608747 44.94281224 -68.1953125 41.90527344 C-64.28806708 38.03203046 -60.40813845 34.1327209 -56.53594589 30.22447205 C-53.54059243 27.2073 -50.53092265 24.20473387 -47.51691437 21.20620728 C-46.08216435 19.77543147 -44.65177928 18.34026354 -43.22606659 16.90048218 C-31.10967588 4.69095341 -18.34501468 -7.06085097 0 0 Z " fill="#050505" transform="translate(122.734375,22.7734375)"/>
<path d="M0 0 C2 3 2 3 1.91123962 5.86776733 C0.7946057 9.7060083 -0.73329671 11.32575606 -3.57983398 14.11572266 C-4.05469238 14.5880986 -4.52955078 15.06047455 -5.01879883 15.54716492 C-6.58329432 17.09803732 -8.16450409 18.630644 -9.74609375 20.1640625 C-10.8396976 21.2432494 -11.93205186 22.32370392 -13.02320862 23.40536499 C-15.89379541 26.24558123 -18.77819047 29.07132198 -21.66662598 31.89337158 C-26.28931708 36.41361592 -30.8926925 40.95345583 -35.4922657 45.49720383 C-37.09920937 47.08000688 -38.71319683 48.65534802 -40.32823181 50.22988892 C-41.31594403 51.20074567 -42.30346741 52.1717946 -43.29077148 53.14306641 C-44.15379379 53.98656647 -45.0168161 54.83006653 -45.9059906 55.6991272 C-50.15680373 60.36987047 -50.43943568 64.14892044 -50.31640625 70.30859375 C-49.86926208 74.11207937 -48.54600541 76.17875077 -46 79 C-45.319375 79.78375 -44.63875 80.5675 -43.9375 81.375 C-39.47161233 83.84549105 -34.99283546 83.76866122 -30 83 C-25.47801666 81.05572256 -22.43115538 78.78301511 -19.0078125 75.26904297 C-18.54840271 74.80203979 -18.08899292 74.33503662 -17.61566162 73.85388184 C-16.62696606 72.84718482 -15.64170695 71.83710324 -14.65960693 70.82397079 C-13.10275814 69.21926189 -11.53564067 67.62525552 -9.96533203 66.03372192 C-5.50551102 61.50993762 -1.06449133 56.96790001 3.36914062 52.41845703 C6.08869074 49.62933197 8.82037495 46.85256442 11.55963135 44.082798 C12.59786647 43.02782115 13.63126499 41.96806113 14.65960693 40.90343857 C16.09773046 39.4147764 17.55071692 37.94223169 19.0078125 36.47216797 C19.82910645 35.63072235 20.65040039 34.78927673 21.49658203 33.92233276 C24.43502307 31.66595306 26.31584396 31.12234382 30 31 C30.99 31.66 31.98 32.32 33 33 C33.58232416 37.12050233 33.52397817 39.22832314 31.16236877 42.70632935 C30.30126999 43.56394867 29.4401712 44.42156799 28.55297852 45.30517578 C28.07975662 45.78584503 27.60653473 46.26651428 27.11897278 46.76174927 C25.55559141 48.34059841 23.96844446 49.89283474 22.37890625 51.4453125 C21.27821339 52.543099 20.17878042 53.64215004 19.08055115 54.74240112 C16.77511536 57.04462186 14.45829498 59.33450341 12.13208008 61.61572266 C9.16802434 64.52334431 6.2285621 67.45436087 3.29675388 70.39445686 C1.02670892 72.66731744 -1.253476 74.92977659 -3.53700447 77.1890831 C-4.6234054 78.26534976 -5.70734101 79.34411142 -6.78863335 80.42551041 C-21.97139162 95.56818369 -21.97139162 95.56818369 -32.43017578 95.64428711 C-33.13384277 95.61729736 -33.83750977 95.59030762 -34.5625 95.5625 C-35.30483887 95.54517822 -36.04717773 95.52785645 -36.81201172 95.51000977 C-42.41247356 95.26745064 -46.62356127 94.5388428 -51 91 C-51.62132812 90.50242187 -52.24265625 90.00484375 -52.8828125 89.4921875 C-59.39375756 83.63506119 -62.5678188 76.01330188 -63.3125 67.375 C-62.98676073 49.85022747 -44.02612857 36.67711101 -32.63037109 25.17041016 C-30.53396019 23.05157249 -28.4477877 20.92336071 -26.36962891 18.78662109 C-23.84179434 16.18773446 -21.29720513 13.60642648 -18.73976135 11.03668213 C-17.77370322 10.06024432 -16.81365452 9.07782118 -15.85997009 8.08929443 C-14.52809513 6.71122872 -13.17170522 5.35698525 -11.81445312 4.00390625 C-11.05169067 3.22861572 -10.28892822 2.4533252 -9.50305176 1.65454102 C-6.14812579 -0.56309695 -3.93854631 -0.51865988 0 0 Z " fill="#060606" transform="translate(115,44)"/>
</svg>
